# xmcd CD database file generated by Grip 2.91
# 
# Track frame offsets:
#       182
#       39117
#       76405
#       103500
#       118385
# 
# Disc length: 1840 seconds
# 
# Revision: 5
# Processed by: cddbd v1.4b42PL1 Copyright (c) Steve Scherf et al.
# Submitted via: Gronk 1.0
# 
DISCID=35072e05
DTITLE=Doubting Thomas - Father Don't Cry
DYEAR=1991
DGENRE=blues
TTITLE0=Father Don't Cry (extended)
TTITLE1=Turn a New Leaf
TTITLE2=Xcrement
TTITLE3=Movie 13
TTITLE4=That Problem Child
EXTD=
EXTT0=
EXTT1=
EXTT2=
EXTT3=
EXTT4=
PLAYORDER=
